<?xml version="1.0" encoding="utf-8"?>
<!-- Generator: Adobe Illustrator 27.5.0, SVG Export Plug-In . SVG Version: 6.00 Build 0)  -->
<svg version="1.1" xmlns="http://www.w3.org/2000/svg" xmlns:xlink="http://www.w3.org/1999/xlink" x="0px" y="0px"
	 viewBox="0 0 500 500" style="enable-background:new 0 0 500 500;" xml:space="preserve">
<g id="BACKGROUND">
	<rect style="fill:#FFFFFF;" width="500" height="500"/>
</g>
<g id="OBJECTS">
	<g>
		<path style="fill:#90E1E9;" d="M250.016,81.063C123.407,81.063,20.77,183.7,20.77,310.309c0,39.2,9.848,76.096,27.19,108.365
			h404.112c17.343-32.269,27.19-69.165,27.19-108.365C479.262,183.7,376.625,81.063,250.016,81.063z"/>
		<g>
			<ellipse style="fill:#90E1E9;" cx="249.259" cy="435.304" rx="229.33" ry="11.019"/>
			<path style="fill:#3F2B50;" d="M413.24,411.308H86.791c-5.994,0-10.853-4.859-10.853-10.853V199.964
				c0-6.894,5.589-12.483,12.483-12.483H411.61c6.894,0,12.483,5.589,12.483,12.483v200.491
				C424.093,406.449,419.234,411.308,413.24,411.308z"/>
			<path style="fill:#FFFFFF;" d="M409.677,389.121H90.354c-3.983,0-7.213-3.229-7.213-7.213V201.98
				c0-3.984,3.229-7.213,7.213-7.213h319.323c3.983,0,7.213,3.229,7.213,7.213v179.928
				C416.89,385.892,413.66,389.121,409.677,389.121z"/>
			<path style="fill:#513E60;" d="M459.836,411.308H40.196v8.706c0,7.06,5.723,12.783,12.783,12.783h394.075
				c7.06,0,12.783-5.723,12.783-12.783V411.308z"/>
			<path style="fill:#3F2B50;" d="M285.551,423.012h-71.07c-1.807,0-3.271-1.465-3.271-3.271v-0.253
				c0-1.806,1.464-3.271,3.271-3.271h71.07c1.807,0,3.271,1.465,3.271,3.271v0.253C288.822,421.547,287.357,423.012,285.551,423.012
				z"/>
		</g>
		<path style="fill:#F8CABD;" d="M333.386,203.737c0,0-3.667,12.723-9.213,28.293c-8.174,22.913-20.42,51.984-31.035,55.692
			c-4.456,1.558-17.615-1.226-32.115-5.235c-6.751-1.87-13.804-4.009-20.41-6.097c-16.037-5.089-29.404-9.888-29.404-9.888
			l-0.426-18.446l-0.571-25.114c13.502,5.37,27.067,10.563,38.835,14.977l0.831,0.312c7.479,2.815,14.199,5.297,19.683,7.302
			l3.095,1.142c7.312,2.659,11.737,4.238,11.737,4.238s22.372-41.234,23.13-44.07c-5.017-4.394-3.448-18.187-3.448-18.187
			L333.386,203.737z"/>
		<path style="fill:#F8B3AC;" d="M324.173,232.029c-8.174,22.913-20.42,51.984-31.035,55.692
			c-4.456,1.558-17.615-1.226-32.115-5.235c-6.751-1.87-13.804-4.009-20.41-6.097c-16.037-5.089-29.404-9.888-29.404-9.888
			l-0.426-18.446c6.824,2.846,72.487,30.152,79.477,27.233C295.611,273.066,314.337,246.425,324.173,232.029z"/>
		<path style="fill:#EF767D;" d="M231.89,305.4c-5.079,9.358-15.777,12.64-15.777,12.64c-0.031,3.563-1.994,27.389-3.012,46.043
			c-0.53,9.545-1.039,18.696-1.402,25.042h-107.23c12.246-27.877,4.124-67.315-1.776-90.279c-4.373-17.023-5.536-31.44-5.162-43.042
			c0.706-22.487,7.177-34.421,7.177-34.421l32.572-9.389l6.699-1.932l38.357,2.285l7.281,2.763l20.596,7.832
			c0,0,3.012,6.917,12.329,32.873C232.222,282.819,236.761,296.415,231.89,305.4z"/>
		<path style="fill:#FFFFFF;" d="M189.617,215.11c-1.735,5.671-6.336,12.017-17.834,14.281
			c-18.592,3.667-30.785-11.83-34.504-17.397l6.699-1.932l38.357,2.285L189.617,215.11z"/>
		<path style="fill:#D66378;" d="M213.1,364.083c-0.53,9.545-1.039,18.696-1.402,25.042h-107.23
			c12.246-27.877,4.124-67.315-1.776-90.279c-4.373-17.023-5.536-31.44-5.162-43.042l13.409-23.588c0,0,19.745,4.03,11.28,40.694
			c-8.455,36.675,21.313,43.488,41.463,36.633c20.15-6.845,37.474-1.942,39.894,3.261c2.41,5.204-64.905,2.171-58.86,31.585
			C149.213,366.275,191.663,365.776,213.1,364.083z"/>
		<g>
			<path style="fill:#A56CA5;" d="M149.338,87.439l-5.048,5.494l-7.592,8.278c-8.496-8.756-21.999,11.197-36.363,21.604
				c-5.723,4.123-11.581,6.741-17.314,5.432c6.886-3.313,7.915-10.968,7.915-10.968s-7.146,11.986-29.082,6.377
				c19.9-1.786,13.772-61.727,49.99-69.382C148.071,46.631,149.338,87.439,149.338,87.439z"/>
			<path style="fill:#8F5D98;" d="M144.29,92.934l-7.592,8.278c-8.496-8.756-21.999,11.197-36.363,21.604
				c2.794-4.767,4.809-9.992,5.848-15.434c1.174-6.128,1.184-12.464,2.836-18.467c1.651-6.014,5.432-11.965,11.373-13.866
				c6.606-2.108,13.949,1.537,18.259,6.969C141.216,85.258,142.93,89.008,144.29,92.934z"/>
			<path style="fill:#7BBDEC;" d="M156.738,92.029c0,0-3.571-9.947-12.498-7.142c-8.927,2.806-20.444,18.875-4.483,25.507"/>
			<path style="fill:#A56CA5;" d="M210.649,154.11l-35.179,10.521l-24.117,7.219c0,0-23.079,0.208-22.653-38.118
				c0.083-7.686,1.298-14.448,3.469-20.285c8.673-23.318,32.582-32.032,60.979-26.34C228.659,94.232,241.04,132.683,210.649,154.11z
				"/>
			<path style="fill:#8F5D98;" d="M178.638,155.149c-0.613,3.282-1.683,6.481-3.168,9.483l-24.117,7.219
				c0,0-23.079,0.208-22.653-38.118c0.083-7.686,1.298-14.448,3.469-20.285c1.06,1.745,2.327,3.417,4.082,3.625
				c2.119,0.26,3.832-0.997,5.619-1.88c0.758-0.374,4.549-1.257,5.048-1.6c-2.908,3.282-4.684,7.541-4.954,11.913
				c-0.042,0.634,0.031,1.423,0.623,1.683c0.446,0.197,0.955-0.031,1.382-0.26c3.49-1.818,6.979-3.646,10.459-5.463
				c-3.022,5.422-2.015,12.536,1.641,17.553c3.656,5.017,9.566,8.07,15.663,9.254c2.732,0.519,6.086,1.163,6.928,3.812
				C178.96,153.072,178.825,154.131,178.638,155.149z"/>
			<path style="fill:#F8CABD;" d="M143.897,161.757c2.212-0.26,4.695-0.8,7.458-1.672l-1.976-8.819c0,0-10.249-15.33-17.52-8.973
				c-0.509,0.447-0.966,0.945-1.382,1.506C125.628,150.332,127.612,163.668,143.897,161.757z"/>
			<path style="fill:#F8B3AC;" d="M143.897,161.757c0.592-6.544-1.755-14.042-13.419-17.958
				C125.628,150.332,127.612,163.668,143.897,161.757z"/>
			<path style="fill:#F8CABD;" d="M219.077,156.845c-1.849-0.239-3.923-0.736-6.232-1.539l1.651-8.115
				c0,0,8.564-14.107,14.639-8.257c0.426,0.411,0.807,0.87,1.154,1.386C234.344,146.331,232.686,158.603,219.077,156.845z"/>
			<path style="fill:#F8B3AC;" d="M219.077,156.845c-0.495-6.021,1.467-12.922,11.213-16.526
				C234.344,146.331,232.686,158.603,219.077,156.845z"/>
			<path style="fill:#F8B3AC;" d="M182.336,192.052v20.295c0,0-10.168,25.26-38.357-2.285l2.503-46.261l0.104-1.859l2.087,1.766
				l6.855,5.764L182.336,192.052z"/>
			<path style="fill:#F8CABD;" d="M222.521,154.775c-0.052,3.542-0.28,7.136-0.769,10.636c-0.987,7.021-3.012,13.658-6.71,18.737
				c-12.723,17.512-75.624,26.112-69.974-34.732c22.829,4.186,26.485-16.701,26.485-16.701s22.674,2.929,47.549-9.576
				C219.104,123.138,222.76,138.427,222.521,154.775z"/>
		</g>
		<path style="fill:#F8CABD;" d="M121.284,363.564c0,0,18.124,5.245,17.138,8.662c-0.862,2.96-18.374-0.374-19.132-0.519
			c0.717,0.281,12.485,4.871,11.581,7.239c-0.945,2.451-11.269,0.696-19.745-2.171c-11.508-3.884-16.587-7.385-16.587-7.385
			s-70.462-35.356-69.714-54.269c0.758-18.903,44.963-78.501,79.882-93.738c6.336,2.69,10.386,8.06,12.578,14.375
			c3.417,9.815,2.347,21.916-1.589,29.757L68.24,312.982l36.301,35.896c1.371-8.247,5.453-11.165,5.453-11.165l3.158,11.28
			c0,0,26.247-6.626,26.953-2.638c0.686,3.895-18.478,9.078-18.478,9.078s22.29,1.454,22.29,4.435
			C143.916,363.751,121.284,363.564,121.284,363.564z"/>
		<g>
			<path style="fill:#6FA7DF;" d="M382.195,223.266c-0.675,1.449-1.877,2.498-3.277,3.002c-1.396,0.515-2.984,0.489-4.44-0.19
				l-110.744-51.589c-2.905-1.354-4.166-4.812-2.812-7.717c0.675-1.449,1.885-2.494,3.277-3.002c1.396-0.515,2.984-0.489,4.44,0.189
				l110.744,51.589C382.296,216.906,383.548,220.36,382.195,223.266z"/>
			<path style="fill:#6494D2;" d="M382.195,223.266c-0.675,1.449-1.877,2.498-3.277,3.002c-1.396,0.515-2.984,0.489-4.44-0.19
				l-110.744-51.589c-2.905-1.354-4.166-4.812-2.812-7.717L382.195,223.266z"/>
			
				<rect x="277.297" y="155.047" transform="matrix(-0.9065 -0.4223 0.4223 -0.9065 471.125 461.9258)" style="fill:#6FA7DF;" width="18.843" height="47.482"/>
			<path style="fill:#7BBDEC;" d="M267.705,196.121l10.275,4.786l20.05-43.041l-10.275-4.786c-3.759-1.751-8.225-0.123-9.976,3.635
				l-13.709,29.43C262.318,189.904,263.946,194.37,267.705,196.121z"/>
			
				<rect x="345.903" y="187.006" transform="matrix(0.9065 0.4223 -0.4223 0.9065 122.226 -130.3319)" style="fill:#6FA7DF;" width="18.843" height="47.482"/>
			<path style="fill:#7BBDEC;" d="M354.288,236.455l-10.275-4.786l20.05-43.041l10.275,4.786c3.759,1.751,5.386,6.217,3.635,9.976
				l-13.71,29.43C362.513,236.578,358.047,238.206,354.288,236.455z"/>
		</g>
		<path style="fill:#F8CABD;" d="M310.118,180.265c-1.703,2.958-4.913,10.373-2.457,11.738c2.457,1.365,7.097-4.777,7.097-4.777
			s-3.412,9.145-0.137,10.509c3.276,1.365,6.872-6.142,6.872-6.142s-1.276,9.554,1.863,10.646c3.139,1.092,5.732-7.643,5.732-7.643
			s0.273,7.78,3.276,8.462c3.003,0.682,4.504-10.391,3.822-13.053c-0.682-2.661-5.05-1.824-5.05-1.824s-0.819-6.142-5.869-3.685
			c1.092-5.596-4.231-5.323-6.142-3.958C319.672,175.761,312.711,175.761,310.118,180.265z"/>
		<g>
			<g>
				<path style="fill:#FFDE76;" d="M398.954,260.124h-60.019c-1.444,0-2.614-1.17-2.614-2.614v-0.202
					c0-1.444,1.17-2.614,2.614-2.614h60.019c1.444,0,2.614,1.171,2.614,2.614v0.202
					C401.568,258.953,400.398,260.124,398.954,260.124z"/>
				<path style="fill:#FFDE76;" d="M398.954,271.487h-60.019c-1.444,0-2.614-1.17-2.614-2.614v-0.202
					c0-1.444,1.17-2.614,2.614-2.614h60.019c1.444,0,2.614,1.171,2.614,2.614v0.202
					C401.568,270.316,400.398,271.487,398.954,271.487z"/>
				<path style="fill:#FFDE76;" d="M383.952,282.85h-45.017c-1.444,0-2.614-1.171-2.614-2.614v-0.202
					c0-1.444,1.17-2.614,2.614-2.614h45.017c1.444,0,2.614,1.171,2.614,2.614v0.202C386.566,281.68,385.396,282.85,383.952,282.85z"
					/>
			</g>
			<g>
				<polygon style="fill:#FFDE76;" points="391.327,291.442 393.423,297.894 400.206,297.894 394.718,301.881 396.815,308.332 
					391.327,304.345 385.839,308.332 387.935,301.881 382.447,297.894 389.23,297.894 				"/>
				<polygon style="fill:#FFDE76;" points="368.942,291.442 371.039,297.894 377.822,297.894 372.334,301.881 374.43,308.332 
					368.942,304.345 363.454,308.332 365.551,301.881 360.063,297.894 366.846,297.894 				"/>
				<polygon style="fill:#FFDE76;" points="346.558,291.442 348.654,297.894 355.438,297.894 349.95,301.881 352.046,308.332 
					346.558,304.345 341.07,308.332 343.166,301.881 337.678,297.894 344.462,297.894 				"/>
			</g>
		</g>
		<path style="fill:#F8B3AC;" d="M115.696,265.516L68.24,312.982l-8.253-8.016l57.298-69.208
			C120.702,245.574,119.633,257.674,115.696,265.516z"/>
		<path style="fill:#8F5D98;" d="M272.656,246.674c-1.194,3.76-3.324,10.438-5.557,17.356c-2.191,6.762-4.477,13.752-6.076,18.457
			c-6.751-1.87-13.804-4.009-20.41-6.097l4.175-19.038l4.259-19.433l0.831,0.312l19.683,7.302L272.656,246.674z"/>
		<path style="fill:#875086;" d="M265.404,269.248c-2.191,6.762-2.781,8.533-4.38,13.239c-6.751-1.87-13.804-4.009-20.41-6.097
			l3.3-15.046L265.404,269.248z"/>
		<path style="fill:none;stroke:#E38F94;stroke-linecap:round;stroke-miterlimit:10;" d="M200.342,163.413
			c0,0,8.071,1.461,7.864-1.471c-0.207-2.932-7.864-7.001-3.518-21.193"/>
		<path style="fill:none;stroke:#3F2B50;stroke-width:2;stroke-linecap:round;stroke-miterlimit:10;" d="M185.021,149.848
			c0,0,3.725-5.641,8.484-1.437"/>
		<path style="fill:none;stroke:#3F2B50;stroke-width:2;stroke-linecap:round;stroke-miterlimit:10;" d="M209.378,147.377
			c0,0,4.879-4.679,8.592,0.473"/>
		<path style="fill:#8F5D98;" d="M182.331,141.904c0.172,1.02,14.079-1.953,14.079-4.598S181.703,138.179,182.331,141.904z"/>
		<path style="fill:#8F5D98;" d="M208.217,134.991c-0.387,0.96,13.022,5.696,14.405,3.441
			C224.005,136.178,209.63,131.488,208.217,134.991z"/>
		<path style="fill:#FFFFFF;" d="M206.547,168.184c-0.654,1.246-1.496,2.202-2.472,2.908c-4.871,3.521-12.879,0.665-14.738-3.895
			c-0.488-1.174-0.561-2.462-0.073-3.781c0,0,0.509,0.312,1.423,0.779c2.482,1.267,7.945,3.677,14.053,3.968
			C205.342,168.194,205.944,168.194,206.547,168.184z"/>
		<path style="fill:#FF6287;" d="M190.687,164.195v2.576l-1.35,0.426c-0.488-1.174-0.561-2.462-0.073-3.781
			C189.264,163.417,189.773,163.728,190.687,164.195z"/>
		<path style="fill:#FF6287;" d="M206.547,168.184c-0.654,1.246-1.496,2.202-2.472,2.908l-1.246-1.454l1.911-1.475
			C205.342,168.194,205.944,168.194,206.547,168.184z"/>
		<circle style="fill:#FF6287;" cx="177.285" cy="160.603" r="5.34"/>
		<path style="fill:#FF6287;" d="M222.521,154.775c-0.052,3.542-0.28,7.136-0.769,10.636c-2.835-0.125-5.089-2.462-5.089-5.328
			c0-2.95,2.389-5.339,5.339-5.339C222.178,154.744,222.344,154.754,222.521,154.775z"/>
		<path style="fill:#F8CABD;" d="M182.336,207.684v4.663c0,0-10.168,25.26-38.357-2.285l2.503-46.261l0.01-0.021l2.181-0.073
			l8.06-0.291c0,0-0.748,2.378-1.205,6.055C154.23,179.973,155.227,201.047,182.336,207.684z"/>
	</g>
	<g>
		<path style="fill:#F8CABD;" d="M392.971,367.161L388.063,500h-62.432l13.591-109.318c0,0-16.918-14.516-13.944-29.563
			C363.523,367.847,392.971,367.161,392.971,367.161z"/>
		<path style="fill:#F8B3AC;" d="M338.568,355.751c0,0,23.466,4.155,23.71,25.666c17.844-7.577,27.621-11.244,27.621-11.244
			l-18.333-19.298L338.568,355.751z"/>
		<g>
			<path style="fill:#8F5D98;" d="M476.963,379.817L240.74,357.084c-5.175-0.498-8.966-5.097-8.468-10.272l0,0
				c0.498-5.175,5.097-8.966,10.272-8.468l236.223,22.733c5.175,0.498,8.966,5.097,8.468,10.272l0,0
				C486.737,376.524,482.138,380.315,476.963,379.817z"/>
			<path style="fill:#A56CA5;" d="M325.999,310.386l-8.668,90.069c-0.483,5.021-4.947,8.701-9.968,8.218l-38.127-3.669
				c-5.021-0.483-8.701-4.948-8.218-9.968l8.668-90.069c0.483-5.02,4.948-8.701,9.968-8.218l38.127,3.669
				C322.802,300.901,326.483,305.366,325.999,310.386z"/>
			<path style="fill:#A56CA5;" d="M286.724,382.414l-29.806-2.868c-5.328-0.513-9.231-5.247-8.718-10.575l3.933-40.872
				c0.513-5.328,5.247-9.231,10.575-8.718l29.806,2.868L286.724,382.414z"/>
			<path style="fill:#8F5D98;" d="M289.713,297.717l-10.418,108.255l-10.058-0.968c-5.021-0.483-8.701-4.948-8.218-9.968
				l8.668-90.069c0.483-5.02,4.948-8.701,9.968-8.218L289.713,297.717z"/>
			<path style="fill:#A56CA5;" d="M405.624,318.049l-8.668,90.069c-0.483,5.021,3.197,9.485,8.218,9.968l38.127,3.669
				c5.021,0.483,9.485-3.197,9.968-8.218l8.668-90.069c0.483-5.02-3.198-9.485-8.218-9.968l-38.127-3.669
				C410.571,309.348,406.107,313.029,405.624,318.049z"/>
			<path style="fill:#A56CA5;" d="M430.442,396.245l29.806,2.868c5.328,0.513,10.062-3.391,10.575-8.718l3.933-40.872
				c0.513-5.328-3.391-10.062-8.718-10.575l-29.806-2.868L430.442,396.245z"/>
			<path style="fill:#8F5D98;" d="M443.661,312.533l-10.418,108.255l10.058,0.968c5.021,0.483,9.485-3.197,9.968-8.218l8.668-90.069
				c0.483-5.02-3.198-9.485-8.218-9.968L443.661,312.533z"/>
		</g>
		<path style="fill:#F8CABD;" d="M332.249,331.084c-3.144,6.56-2.918,29.716,3.344,30.821c6.397,1.129,9.502-8.247,9.502-8.247
			s1.809,9.948,7.408,10.965c6.445,1.17,11.143-7.048,11.143-7.048s1.467,8.483,7.277,9.107c5.821,0.625,8.686-6.776,8.686-6.776
			s0.421,6.536,7.064,7.863c6.643,1.327,10.823-17.599,9.313-25.189c-1.51-7.59-11.475-5.395-11.475-5.395
			s-6.341-16.388-17.816-6.101c-3.421-8.434-14.193-10.246-20.354-1.055C343.323,322.298,336.779,321.633,332.249,331.084z"/>
		<path style="fill:#F8B3AC;" d="M363.606,500h-37.975l13.591-109.318c0,0,8.568,3.972,14.537,4.43L363.606,500z"/>
		<path style="fill:#FBE0D3;" d="M367.93,356.656c0,0,5.478-1.698,8.699,0.125c-0.462,5.311-3.569,8.648-6.641,7.141
			C366.915,362.414,367.93,356.656,367.93,356.656z"/>
		<path style="fill:#FBE0D3;" d="M383.509,358.062c0,0,5.085-0.71,8.138,1.019c-1.309,4.326-3.275,7.298-6.187,5.868
			C382.547,363.52,383.509,358.062,383.509,358.062z"/>
		<path style="fill:#FBE0D3;" d="M333.331,350.103c0,0,5.324-0.864,8.544,0.96c-0.462,5.311-3.569,9.198-6.642,7.69
			C332.161,357.245,333.331,350.103,333.331,350.103z"/>
		<path style="fill:#FBE0D3;" d="M349.726,352.97c0,0,7.242-1.268,10.027,1.803c-0.805,6.794-5.608,9.844-8.51,7.214
			C348.341,359.357,349.726,352.97,349.726,352.97z"/>
	</g>
	<g>
		<path style="fill:#90E1E9;" d="M424.512,132.011L424.512,132.011c0-10.253-8.311-18.564-18.564-18.564l0,0
			c10.253,0,18.564-8.311,18.564-18.564h0c0,10.253,8.311,18.564,18.564,18.564l0,0
			C432.823,113.447,424.512,121.758,424.512,132.011z"/>
		<path style="fill:#90E1E9;" d="M377.822,66.527L377.822,66.527c0-13.257-10.747-24.004-24.004-24.004l0,0
			c13.257,0,24.004-10.747,24.004-24.004l0,0c0,13.257,10.747,24.004,24.004,24.004l0,0
			C388.569,42.523,377.822,53.27,377.822,66.527z"/>
		<path style="fill:#90E1E9;" d="M259.625,71.885L259.625,71.885c0-5.915-4.795-10.71-10.71-10.71l0,0
			c5.915,0,10.71-4.795,10.71-10.71l0,0c0,5.915,4.795,10.71,10.71,10.71l0,0C264.42,61.176,259.625,65.971,259.625,71.885z"/>
		<path style="fill:#FFFFFF;" d="M360.702,159.33L360.702,159.33c0-6.35-5.147-11.497-11.497-11.497v0
			c6.349,0,11.497-5.147,11.497-11.497l0,0c0,6.35,5.147,11.497,11.497,11.497v0C365.85,147.833,360.702,152.98,360.702,159.33z"/>
		<path style="fill:#FFFFFF;" d="M325.631,127.901L325.631,127.901c0-3.642-2.953-6.595-6.595-6.595l0,0
			c3.642,0,6.595-2.953,6.595-6.595h0c0,3.642,2.953,6.595,6.595,6.595l0,0C328.584,121.305,325.631,124.258,325.631,127.901z"/>
		<path style="fill:#FFFFFF;" d="M102.722,171.902L102.722,171.902c0-3.642-2.953-6.595-6.595-6.595v0
			c3.642,0,6.595-2.953,6.595-6.595l0,0c0,3.642,2.953,6.595,6.595,6.595v0C105.675,165.307,102.722,168.26,102.722,171.902z"/>
	</g>
</g>
</svg>
